<svg xmlns="http://www.w3.org/2000/svg" version="1.1" viewBox="0 0 1024 1024"><path d="M518.445 393.848c10.189-.363 20.563 1.445 28.555 8.152a74.073 74.073 0 0 1 4.773 5.547c1.184 1.596 1.184 1.596 3.227 2.453l.82-1.816c4.057-7.509 12.483-10.629 20.18-13.184 2.784-.673 5.09-.86 8-1l2.29-.152c11.766-.467 21.755 2.804 30.456 10.746 7.376 7.799 9.42 17.819 9.368 28.226v2.337c0 2.537-.008 5.075-.016 7.613l-.005 5.292c-.003 4.634-.013 9.268-.024 13.903-.01 4.732-.015 9.465-.02 14.197-.01 9.28-.028 18.559-.049 27.838-3.951.05-7.902.086-11.853.11-2.006.015-4.012.04-6.018.066l-3.809.02-3.523.031C598 504 598 504 596 502c-.227-2.61-.227-2.61-.195-5.96l.02-3.794.025-2.035c.025-2.107.038-4.214.048-6.321.027-5.24.075-10.48.123-15.72.04-4.419.07-8.836.09-13.254.014-2.064.039-4.127.064-6.19.117-13.794.117-13.794-6.175-25.726-5.758-2.894-11.713-2.811-18-2-4.575 1.618-7.853 3.936-10.238 8.229-3.053 8.013-3.366 15.565-3.371 24.064a2078.82 2078.82 0 0 1-.05 4.325c-.044 3.756-.064 7.512-.08 11.269-.019 3.848-.06 7.696-.1 11.545-.076 7.522-.126 15.045-.161 22.568-3.304 1.101-5.514 1.031-8.98.879l-3.526-.147-3.682-.17-3.716-.158c-3.032-.13-6.064-.264-9.096-.404-1.359-2.717-1.105-4.826-1.082-7.867l.02-3.734.017-2.003c.018-2.073.028-4.147.036-6.22.025-5.897.06-11.794.105-17.69.027-3.608.044-7.215.055-10.823.006-1.368.016-2.737.03-4.105.484-13.179.484-13.179-4.494-24.995-5.286-5.04-10.552-4.998-17.585-4.88-5.347.546-7.837 2.947-11.352 6.755-4.223 6.184-4.879 12.575-4.864 19.935v3.76l.016 4.015.005 4.145c.003 3.62.013 7.24.024 10.86.01 3.7.015 7.4.02 11.1.01 7.25.028 14.498.049 21.747-4.173.65-8.203 1.127-12.426 1.133l-2.912.004-2.974-.012-3.034.012-2.892-.004-2.627-.004C461 504 461 504 459 503c-.156-9.686-.304-19.373-.443-29.06-.065-4.5-.132-9.001-.205-13.502-.344-21.202-.328-42.249.648-63.438h29c1.883 3.767 2.22 5.03 2 9l2.75-2.688c7.286-6.249 16.283-8.878 25.695-9.464Z" fill="#0352A7"/><path d="M690 355a7586.59 7586.59 0 0 1 23.917-.104c3.704-.01 7.407-.024 11.11-.047 3.586-.022 7.172-.034 10.757-.039 2.008-.005 4.016-.02 6.025-.037 15.534-.001 30.455 1.597 43.191 11.227l2.438 1.805c8.027 6.876 12.215 17.687 14.312 27.82L802 399l.156 1.934c.57 12.938-3.693 26.013-11.406 36.378-11.455 11.196-25.628 15.89-41.43 15.786l-2.185-.003c-2.67-.006-5.34-.02-8.01-.033L721 453v50l-13.125.563-4.106.185-3.277.13-3.332.144c-3.164-.022-6.06-.415-9.16-1.022-.033-6.25-.051-12.5-.063-18.75l-.005-3.07c-.022-16.94.125-33.875.326-50.813l.037-3.128c.123-10.544.253-21.087.396-31.63.053-4.017.103-8.034.152-12.05.024-1.9.05-3.798.078-5.696.038-2.618.07-5.237.1-7.855l.04-2.34c.032-3.176-.048-5.63-1.061-8.668.938-2.188.938-2.188 2-4Zm31 28v44l14.438.188 4.497.082c8.534.054 16.079.008 22.878-5.582 5.867-7.21 8.022-12.473 7.187-21.688-1.318-5.716-3.824-9.92-8-14-6.764-3.976-13.949-3.59-21.625-3.75l-3.969-.129c-5.412-.15-10.068-.189-15.406.879Z" fill="#0252A8"/><path d="m14.551 354.855 3.605-.02 3.942-.003 4.05-.01c2.846-.006 5.692-.008 8.538-.007 2.89 0 5.782-.007 8.673-.02 49.51-.233 49.51-.233 65.641 15.205 9.746 10.26 12.444 23.167 12.207 36.863-.454 12.15-5.222 23.087-13.52 32.012-14.443 13.307-31.27 14.408-49.812 14.75L40 454l-1 49c-4.142.828-7.045 1.062-11.176.879l-3.506-.147-3.63-.17-3.69-.158c-3-.13-5.999-.264-8.998-.404-.023-19.15-.041-38.298-.052-57.447-.005-8.891-.012-17.782-.023-26.672-.01-7.747-.017-15.493-.02-23.24 0-4.103-.003-8.207-.01-12.311-.007-3.859-.01-7.717-.008-11.576 0-1.42-.002-2.84-.006-4.26-.005-1.931-.003-3.862-.001-5.793l-.003-3.282c.231-4.542 2.691-3.55 6.674-3.564ZM39 383v44l13.375.125 4.154.055c13.84.154 13.84.154 26.002-5.692 4.726-4.789 6.216-10.195 6.719-16.738-.463-6.94-1.868-11.917-7.125-16.688-5.386-4.467-10.16-5.357-17.05-5.257l-2.01.006c-2.46.01-4.919.038-7.377.064L39 383Z" fill="#0352A7"/><path d="M948 354c2.424 3.734 2.27 7.41 2.227 11.706v2.337c0 2.543-.016 5.086-.032 7.629l-.008 5.296c-.008 4.643-.028 9.285-.05 13.928-.02 4.74-.03 9.478-.04 14.217-.02 9.296-.055 18.591-.097 27.887l6.11-7.043 1.72-1.982a2030.34 2030.34 0 0 0 11.42-13.288l1.403-1.64c2.426-2.85 2.426-2.85 4.347-6.047h2l.875-1.813C979 403 979 403 981 400h2l1-3h33c-1.043 4.174-1.51 4.816-4.5 7.563-3.194 3.068-6.044 6.23-8.813 9.687a225.213 225.213 0 0 1-10.375 12l-1.41 1.534a353.027 353.027 0 0 1-5.968 6.353c-1.873 1.932-1.873 1.932-3.934 4.863.302 3.595 1.349 5.926 3.457 8.809l1.594 2.22 1.761 2.409c6.909 9.642 13.512 19.465 20.06 29.352l3.757 5.667 1.18 1.783a231.335 231.335 0 0 0 6.28 9.022C1022 501 1022 501 1022 503c-6.247 1.409-12.495 1.462-18.875 1.625l-3.8.215c-9.023.181-9.023.181-12.605-2.629-1.833-2.313-3.293-4.63-4.72-7.211a759.557 759.557 0 0 0-2.414-3.71 684.921 684.921 0 0 1-2.211-3.665C971.601 478.178 965.313 469.092 959 460a298.812 298.812 0 0 0-3.375 3.188l-1.898 1.792c-3.805 4.45-3.97 8.576-3.922 14.29l.008 2.063c.011 2.16.036 4.32.062 6.48.01 1.47.02 2.94.027 4.412.022 3.592.057 7.183.098 10.775-9.806 1.961-20.008.4-30 0l-1-146c3.974-1.987 5.355-2.233 9.605-2.16l3.229.033 3.354.065c2.201.034 4.403.064 6.605.09l2.954.054c2.223.175 2.223.175 3.253-1.082Z" fill="#0251A6"/><path d="M429 403c8.637 7.214 11.699 17.164 13 28 .257 5.61.234 11.209.195 16.824l-.008 4.796c-.008 4.17-.027 8.341-.05 12.512-.02 4.27-.03 8.54-.04 12.811-.02 8.353-.055 16.705-.097 25.057-3.293.893-6.001 1.05-9.422.879l-3.105-.147-3.223-.17-3.27-.158c-2.66-.13-5.32-.266-7.98-.404l-2-10-1.875 2.188c-6.36 6.36-16.083 9.835-24.938 10.042a436 436 0 0 1-5.187-.043l-2.617-.001c-4.893-.034-9.56-.367-14.383-1.186v-2l-2-.125c-7.271-2.12-11.767-7.353-15.773-13.531-3.968-7.581-4.6-15.917-2.504-24.2C347.48 454.089 353.635 448.923 363 444c15.26-6.715 33.597-6.418 50-6-.987-8.6-.987-8.6-5-16-6.084-3.962-12.2-4.465-19.188-3.375-4.617 1.089-6.998 2.403-9.812 6.375l-4 10-26-4c-1.66-6.64 1.097-12.728 4.477-18.54 7.614-10.5 18.328-15.871 30.937-18.05 16.144-1.846 30.768-.13 44.586 8.59Zm-37.875 54.75-2.123.187c-5.186.592-8.713 2.046-13.002 5.063-2.546 3.879-3.186 7.767-2.5 12.313 2.316 4.15 5.021 6.194 9.5 7.687 10.21.791 16.775.064 24.813-6.188 4.69-6.03 5.594-12.345 5.187-19.812-7.338-.23-14.577-.005-21.875.75Z" fill="#0353A8"/><path d="M889 403c9.011 8.07 12.562 17.21 14 29 .267 5.526.258 11.04.23 16.57v4.721c-.002 3.273-.01 6.546-.024 9.818-.017 4.203-.021 8.405-.02 12.607 0 3.238-.006 6.475-.013 9.713-.003 1.55-.005 3.102-.006 4.653-.002 2.154-.011 4.307-.022 6.461l-.011 3.715C903 503 903 503 902 504c-1.929.017-3.858-.037-5.785-.121l-3.545-.147-3.732-.17-3.745-.158c-3.064-.13-6.129-.265-9.193-.404v-11l-2.09 1.61C860.223 503.897 848.86 506.13 832 505a62.396 62.396 0 0 1-11-3l-3-1c-2.688-1.938-2.688-1.938-5-4v-2h-4c-4.68-10.847-8.013-22.36-3.438-33.938 4.724-8.801 11.483-15.123 20.989-18.218 2.483-.71 4.974-1.394 7.472-2.047 2.878-.664 2.878-.664 4.977-1.797a208.43 208.43 0 0 1 8.063-.563l2.401-.128c8.18-.402 16.349-.402 24.536-.309-.815-9.474-.815-9.474-6-17-6.263-3.579-14.171-3.595-20.992-1.777-3.336 1.291-4.92 2.891-7.008 5.777-1.222 2.948-2.174 5.919-3 9a391.35 391.35 0 0 1-20.188-1.938l-3.855-.464L810 431c-1.855-3.71.427-7.774 1.64-11.535 3.68-9.38 9.735-16.13 18.704-20.645 18.167-7.876 42.275-7.698 58.656 4.18Zm-51 59c-3.12 3.505-3.753 6.301-4 11 1.046 4.5 3.24 6.432 7 9 6.304 2.101 14.215 1.961 20.5-.25 5.688-2.844 9.078-5.627 11.785-11.379 1.324-4.39 1.015-8.838.715-13.371-18.708-.863-18.708-.863-36 5Z" fill="#0352A7"/><path d="M269 402c9.51 9.083 12.595 21.035 13.172 33.81.082 4.298.054 8.595.023 12.893l-.008 4.724c-.008 4.103-.027 8.207-.05 12.31-.02 4.203-.03 8.407-.04 12.61-.02 8.218-.055 16.436-.097 24.653-3.364.905-6.33 1.129-9.824 1.133l-3.365.004-3.498-.012-3.534.012-3.353-.004-3.081-.004C253 504 253 504 252 503a137.688 137.688 0 0 1-.158-6.32l-.015-2.001c-.01-1.44-.02-2.88-.026-4.319a1545.5 1545.5 0 0 0-.053-6.85c-.062-6.493-.116-12.987-.15-19.481-.02-3.97-.056-7.94-.1-11.908a625.87 625.87 0 0 1-.026-4.527c.043-11.152.043-11.152-3.472-21.594-5.625-5.484-10.936-5.355-18.477-5.27-5.588.428-9.204 1.79-13.043 5.895-6.411 8.87-5.765 20.985-5.64 31.438l.016 3.619c.017 3.773.048 7.545.082 11.318.027 3.801.052 7.603.07 11.404.013 2.355.03 4.71.054 7.065l.02 3.219.025 2.824c-.1 2.316-.45 4.272-1.107 6.488-3.97.025-7.939.043-11.908.055-1.351.005-2.702.012-4.054.02-1.938.013-3.877.018-5.815.023l-3.54.016C182 504 182 504 181 503a59.045 59.045 0 0 1-.12-4.144l-.004-2.707.01-2.993v-3.133c0-3.436.009-6.872.016-10.308l.005-7.126c.003-6.265.013-12.53.024-18.795.01-6.388.015-12.776.02-19.163.01-12.544.028-25.087.049-37.631 2.797-1.399 4.981-1.01 8.102-.879l3.671.147 3.852.17 3.875.158c3.167.13 6.334.265 9.5.404l1 9 2.125-1.645C230.055 391.59 250.88 390.04 269 402Z" fill="#0151A8"/><path d="M302 395h2v2h28l1 3h-2l.038 3.079c.12 9.676.237 19.353.353 29.029.06 4.972.12 9.944.182 14.916.47 38.087.47 38.087.505 51.261l.013 2.485c-.003 13.068-2 24.656-11.185 34.445-11.474 10.745-25.102 10.1-39.906 9.785l-1-23c8-2 8-2 11.188-1.875 2.888.047 2.888.047 5.562-1.375 7.568-9.25 4.477-27.816 4.41-39.004l-.016-7.057c-.013-6.158-.037-12.317-.065-18.476-.043-9.888-.073-19.776-.096-29.664-.01-3.452-.027-6.904-.045-10.356l-.02-6.312-.02-2.914-.005-2.663-.01-2.313C301 398 301 398 302 395Z" fill="#0152A9"/><path d="m134 395 1 2h27c.925 2.775 1.124 4.41 1.12 7.271l.004 2.639-.01 2.886v3.045c0 3.328-.009 6.656-.016 9.983l-.005 6.915c-.003 6.071-.013 12.143-.024 18.214-.01 6.193-.015 12.387-.02 18.58-.01 12.156-.028 24.311-.049 36.467-3.719.863-7.143 1.117-10.957 1.098l-3.37-.01-3.486-.026-3.544-.013c-2.881-.012-5.762-.028-8.643-.049a52820.2 52820.2 0 0 1-.052-41.75c-.005-6.461-.012-12.922-.023-19.384-.011-6.23-.017-12.462-.02-18.693-.002-2.382-.005-4.764-.01-7.146a4148.36 4148.36 0 0 1-.009-9.978l-.01-3.01.004-2.736-.003-2.386C133 397 133 397 134 395Z" fill="#0553A7"/><path d="M504 576c26 0 26 0 35 4 3.508 3.508 4.152 5.606 4.25 10.375-.05 5.158-1.616 7.991-5.25 11.625l2.375 1.938c3.426 3.475 4.438 7.247 4.625 12.062-.673 4.777-2.015 8.015-5.438 11.438C528.222 632.412 516.298 631 504 631v-55Zm10 9v13c4.822.804 6.82 1.132 11.25.188l2.578-.52c2.355-.539 2.355-.539 4.172-2.668.345-4.053.302-5.548-2-9-2.485-.586-2.485-.586-5.313-.688l-2.863-.199c-2.606-.104-5.216-.113-7.824-.113Zm0 22v14c2.417.081 4.832.14 7.25.188l2.066.076c3.11.045 5.347-.09 8.133-1.526 1.835-2.056 2.119-3.008 2.114-5.738l.066-2.063c-.508-2.149-.508-2.149-2.707-3.675-3.61-1.56-6.317-1.56-10.235-1.45L514 607Z" fill="#0952A3"/><path d="M618 576h13a106222.931 106222.931 0 0 1 12.11 32.52l.997 2.678A2310.137 2310.137 0 0 1 651 630c-2 2-2 2-4.059 2.152-6.403-.578-6.403-.578-8.816-3.152-1.485-3.96-2.787-7.987-4.125-12h-20l-2 8c-.942 2.028-1.922 4.04-3 6h-10l-1-2c.983-2.926 2.045-5.76 3.188-8.625.734-1.881 1.467-3.763 2.199-5.645l1.243-3.186c2.397-6.202 4.72-12.433 7.05-18.661.818-2.19 1.637-4.378 2.457-6.567 1.289-3.438 2.576-6.877 3.863-10.316Zm6 12a3470.33 3470.33 0 0 0-3 8.375l-.867 2.406-.82 2.305-.762 2.126c-.65 1.795-.65 1.795-.551 3.788h13l-1.875-6.125-1.055-3.445A432.9 432.9 0 0 0 625 588h-1Z" fill="#0A53A4"/><path d="M200 589c2.762.309 2.762.309 6 2 1.809 3.524 2.778 7.25 3.813 11.063a2644.22 2644.22 0 0 0 1.769 6.097l.757 2.739c.472 2.066.472 2.066 1.661 3.101l.535-2.004c.797-2.979 1.6-5.956 2.403-8.933l.841-3.155c.402-1.484.402-1.484.81-2.998l.747-2.777C220 592 220 592 221 591c2.986-.457 5.994-.704 9-1-1.47 8.758-4.03 17.153-6.625 25.625-.425 1.4-.85 2.8-1.273 4.2A4005.126 4005.126 0 0 1 219 630c-1.457.195-2.916.38-4.375.563l-2.46.316C210 631 210 631 208 630c-.746-2.406-.746-2.406-1.438-5.5-1.212-5.376-2.79-10.185-4.562-15.5l-7 22h-9c-2.833-6.415-5.033-12.955-7.126-19.644a750.313 750.313 0 0 0-1.91-5.95c-.4-1.273-.8-2.546-1.198-3.82l-1.101-3.467c-.674-3.162-.563-5.047.335-8.119 6.75-.125 6.75-.125 9 1 .762 2.117.762 2.117 1.473 4.875l.787 2.984.803 3.141c.53 2.042 1.062 4.084 1.597 6.125l.707 2.758c.44 2.082.44 2.082 1.633 3.117l.61-2.08c.916-3.1 1.84-6.198 2.765-9.295l.96-3.273.938-3.125.857-2.889C198 591 198 591 200 589Z" fill="#0B53A4"/><path d="m97 589 4 4 1.617-.945c5.43-2.838 9.134-3.545 15.09-1.938 5.292 2.038 8.177 5.178 10.668 10.133 2.826 7.142 2.25 13.616-.395 20.742-1.477 3.025-3.381 4.904-5.98 7.008l-2.125 1.813c-6.38 2.634-12.632 1.684-18.875-.813l-1 17-10 1c-1.284-2.567-1.082-4.312-1.022-7.184l.061-3.276.082-3.548.072-3.623c.076-3.832.16-7.663.245-11.494l.158-7.777c.129-6.366.264-12.732.404-19.098 2.667-1.333 4.167-.671 7 0v-2Zm6 12c-3.425 3.795-3.453 6.58-3.285 11.523.393 3.415 1.268 5.694 3.285 8.477 2.95 1.834 4.595 2.025 8.063 1.813 3.11-.861 4.593-1.627 6.937-3.813 1.821-4.786 2.777-10.108.938-15-2.078-3.217-3.422-4.542-6.938-6-4.353 0-5.56.53-9 3Z" fill="#0D55A5"/><path d="m407.813 574.867 2.187.008 2.188-.008C414 575 414 575 415 576c.237 2.859.422 5.699.563 8.563l.13 2.443c.107 1.998.207 3.996.307 5.994l2.293-1.445c3.865-2.22 7.323-3.064 11.758-2.117 5.847 1.938 9.273 5.047 12.699 10.187 2.66 7.184 3.089 14.184.27 21.367-2.304 4.536-5.175 8.125-10.02 10.008-2.84.3-2.84.3-5.938.313l-3.09.05c-3.34-.408-5.235-1.453-7.972-3.363l-1 3h-10c-.025-7.815-.043-15.629-.055-23.444-.005-2.66-.012-5.321-.02-7.982-.013-3.815-.018-7.63-.023-11.445l-.015-3.63v-3.337l-.007-2.954c.148-2.715.217-3.142 2.933-3.34ZM416 603c-1.963 3.926-1.34 8.71-1 13 1.313 3.386 2.187 4.503 5.25 6.375 3.656.831 6.131.612 9.75-.375 2.69-1.711 2.69-1.711 4-5 .764-5.627.65-10.404-1.5-15.688-2.877-2.661-4.606-3.394-8.465-3.625-3.727.573-5.475 2.628-8.035 5.313Z" fill="#0E57A7"/><path d="M370 575h9c1.677 1.677 1.145 3.737 1.161 6.039l.03 3.256.012 3.545.017 3.613c.01 2.528.016 5.056.02 7.584.01 3.88.041 7.76.072 11.64.007 2.45.012 4.9.016 7.35l.038 3.539-.01 3.266.011 2.884c-.12.754-.242 1.507-.367 2.284-3.233 2.155-4.252 2.469-8 2-1.813-1.5-1.813-1.5-3-3l-3 1c-5.655 1.83-9.701 2.505-15.215-.027-5.162-2.813-7.436-5.383-9.219-10.903-1.764-6.45-1.931-11.802.434-18.07 2.67-4.625 5.849-9.169 11-11 6.645-.704 10.12-.528 16 3l1-18Zm-17 26c-2.947 4.636-2.503 9.7-2 15 1.313 3.386 2.187 4.503 5.25 6.375 3.656.831 6.131.612 9.75-.375 2.69-1.711 2.69-1.711 4-5 .786-6.46.904-11.58-3-17-4.936-3.455-9.38-2.497-14 1Z" fill="#0B53A3"/><path d="M589.313 577.813c8.184 6.661 8.184 6.661 8.687 11.187-6.625 3-6.625 3-10 3a282.832 282.832 0 0 1-5-5c-3.726-1.242-7.13-1.535-11-1-5.102 2.695-8.174 5.521-10 11-.631 7.656-.94 13.858 4 20 3.74 3.032 7.216 3.838 12 4 4.526-1.083 7.843-2.531 11-6l2.313.938c1.875.74 3.774 1.424 5.687 2.062-.079 2.678-.57 4.472-2.273 6.563-5.234 4.913-11.08 7.199-18.239 7.566-8.043-.417-15.457-3.509-20.926-9.504-5.475-7.208-7.138-15.117-6.347-24.05 1.453-8.012 5.574-14.26 11.89-19.325 8.846-5.836 18.89-6.536 28.207-1.438Z" fill="#0B52A3"/><path d="M671 576c4.966-.025 9.932-.043 14.899-.055 1.69-.005 3.381-.012 5.072-.02 2.425-.013 4.85-.018 7.275-.023l2.304-.015c1.817 0 3.634.051 5.45.113 1 1 1 1 1.133 2.813l-.008 2.187.008 2.188C707 585 707 585 706 586a107.6 107.6 0 0 1-5.566.098l-3.409-.01-3.587-.025-3.6-.014c-2.946-.012-5.892-.03-8.838-.049l1 11 2-1 1.645.438c3.338.797 6.634.627 10.043.562a191.65 191.65 0 0 1 7.312 0c1 1 1 1 1.098 3.066l-.035 2.496-.028 2.504L704 607c-2.979.993-4.592 1.055-7.668.879l-2.705-.147-2.814-.17-2.85-.158c-2.321-.13-4.642-.264-6.963-.404l.108 2.095c.157 3.114.306 6.228.455 9.342l.17 3.3.146 3.134.143 2.904C682 630 682 630 681 631a91.472 91.472 0 0 1-5.063.063l-2.785-.028L671 631c-.98-2.94-1.127-4.837-1.13-7.899l-.009-3.013.006-3.248-.003-3.336c0-2.328.001-4.655.006-6.983.005-3.573 0-7.145-.007-10.718 0-2.259.002-4.517.004-6.776l-.006-3.254.01-3.004.002-2.65C670 578 670 578 671 576Z" fill="#044EA1"/><path d="M261.375 592.875c4.888 3.957 6.111 7.197 7.313 13.375.25 1.263.502 2.527.761 3.828L270 613c-2.766 1.383-5.01 1.112-8.102 1.098l-3.671-.01-3.852-.025-3.875-.014c-3.167-.012-6.333-.028-9.5-.049 1.802 4.153 1.802 4.153 4.813 7.375 3.71 1.06 6.876 1.12 10.5-.25 1.846-1.03 1.846-1.03 2.687-3.125 2.875-.75 2.875-.75 6-1l3 2c-.58 3.91-2.306 6.16-5 9-5.62 3.497-10.995 4.52-17.5 3.438-6.295-1.612-10.064-5.122-13.438-10.563-2.276-6.417-2.255-14.13.625-20.313 3.494-5.846 7.357-9.268 13.91-11.187 5.543-.865 9.98.834 14.778 3.5ZM242 602c-.88 2.635-.88 2.635-1 5 3.044.082 5.072-.024 8-1l3.5.563c3.607.838 3.607.838 6.5-1.563-1.522-2.629-2.844-4.844-5-7-5.417-.613-8.266-.063-12 4Z" fill="#0B52A4"/><path d="M800.5 591.188c3.895 2.824 6.22 5.237 7.078 10.07l.102 3.652.064 1.968c.04 1.365.072 2.731.095 4.097.036 2.086.104 4.169.177 6.254.282 11.121.282 11.121-2.016 14.771l-8-1-1-3h-2v2c-5.981 1.8-11.201 2.868-17 0-3.334-3.05-4.76-5.158-6-9.5 0-4.188.573-6.087 3-9.5 6.282-5.14 14.197-5.237 22-6v-4l-4-1v-2c-3.488.77-3.488.77-7 2l-1 3c-4.018.841-7.018 1.054-11 0 .075-3.159.375-5.3 2.52-7.7 6.98-6.07 15.136-7.113 23.98-4.112ZM792 614l-2.875-.063c-3.292-.214-3.292-.214-6.125 2.063-.417 2.5-.417 2.5 0 5 1.99 2.413 1.99 2.413 5.875 2.375 3.01-.087 3.978-.277 6.563-2 1.85-2.812 2.26-5.048 2.562-8.375-3.29-.367-3.29-.367-6 1Z" fill="#064EA1"/><path d="M330.875 593.75c3.432 3.297 5.906 6.502 6.297 11.406.014 1.949-.071 3.898-.172 5.844l2 1c-1.242 1.52-1.242 1.52-3 3-1.883.074-1.883.074-4.125-.313-5.03-.688-9.934-.78-15-.75l-2.336.013c-1.847.013-3.693.03-5.539.05 1.797 4.125 1.797 4.125 4.75 7.375 3.27.908 5.87.98 9.25.625 1.207-1.02 1.207-1.02 2.438-2.063 2.918-2.206 3.423-2.141 6.875-1.687L336 619c-.25 4.239-1.903 6.818-5 9.7-5.04 3.277-11.499 3.902-17.313 2.675-3.854-1.437-6.493-2.82-9.687-5.375v-2l-3-1c-2.82-7.123-2.97-13.947-.438-21.188 2.477-5.587 5.776-9.138 11.352-11.687 6.851-2.184 13.375-.844 18.961 3.625ZM311 601l-2 6h18c-.646-4.882-.646-4.882-3-8-5.267-1.209-8.76-1.866-13 2Z" fill="#0B53A4"/><path d="m916 588 1 2 3.625.25c5.132.534 8.083 2.882 11.375 6.75 2.937 5.19 3.616 10.154 4 16-6.625 2.125-6.625 2.125-10 1-2.035-.047-2.035-.047-4.23.121l-2.432.147-2.525.17-2.561.158c-2.084.13-4.168.266-6.252.404.337 2.46.337 2.46 1 5 3.832 2.367 7.59 2.472 12 2 1.207-1.02 1.207-1.02 2.438-2.063 2.918-2.206 3.423-2.141 6.875-1.687L934 619c-.11 3.757-1.305 5.672-3.938 8.188-4.938 3.908-10.26 5.063-16.492 4.652-5.349-.928-8.843-2.766-12.57-6.84-4.16-6.674-4.922-12.681-3.598-20.32 1.63-6.285 5.015-10.37 10.598-13.68 2.817-.799 5.04-.947 8-1v-2Zm-8 15-1 4h18c-1.034-5.578-1.034-5.578-5-9-5.922-.97-8.37.303-12 5Z" fill="#0D53A3"/><path d="M165.875 592.625c5.325 4.047 7.1 8.792 8.063 15.313.428 6.992-1.45 12.542-5.813 18-4.232 4.48-8.712 5.539-14.719 6.09-5.577-.064-9.975-1.877-14.281-5.34-4.921-6.225-6.648-11.84-6.125-19.688 1.402-5.707 3.808-9.904 8-14 8.747-4.45 15.933-4.72 24.875-.375ZM146 601c-2.86 4.766-3.509 8.418-2.637 13.914 1.049 3.435 2.754 5.036 5.637 7.086 3.35 1.047 5.293 1.18 8.688.313 2.739-1.555 3.84-2.516 5.312-5.313 1.4-6 1.217-10.618-2-16-2.575-2.169-4.196-2.88-7.5-3.375-3.26.489-4.934 1.282-7.5 3.375Z" fill="#0B53A4"/><path d="M843.605 590.613c4.146 2.4 5.906 4.92 7.395 9.387.084 2.357.107 4.716.098 7.074l-.005 2.072c-.005 2.18-.018 4.361-.03 6.542-.006 1.48-.01 2.96-.014 4.439A3940.86 3940.86 0 0 1 851 631h-3l-2 .625c-2 .375-2 .375-5-1.625-.369-2.642-.369-2.642-.371-5.96l-.053-3.618c-.009-2.524-.014-5.047-.015-7.57-.02-1.197-.038-2.393-.057-3.625l-.006-3.326c-.613-3.57-1.605-4.774-4.498-6.901-3.673 0-6.007.015-8.683 2.669-1.696 3.002-1.748 5.189-1.829 8.628l-.107 3.652-.068 3.801-.104 3.848c-.082 3.134-.152 6.267-.209 9.402h-10v-40l10-1 1 3 1.582-1.234c6.018-4.09 9.405-4.087 16.023-1.153Z" fill="#034C9F"/><path d="M446 590c5.957-.488 5.957-.488 8 0 3.644 4.388 4.966 10.46 6.688 15.813l.97 2.966A1697.19 1697.19 0 0 1 464 616l.687-2.064c1.032-3.086 2.079-6.167 3.125-9.249l1.08-3.248 1.065-3.115.968-2.872c1.09-2.488 1.894-3.848 4.075-5.452 3.688-.188 3.688-.188 7 0 1.128 3.383.91 3.955-.276 7.16l-.922 2.53-1.029 2.728-1.044 2.822c-.734 1.974-1.472 3.947-2.215 5.918a1345.652 1345.652 0 0 0-3.338 9c-.717 1.92-1.434 3.84-2.153 5.76l-.991 2.697c-5.194 13.67-5.194 13.67-10.027 16.591-2.525 1-4.55.99-7.255.919l-2.703-.055L448 646v-9c2.862-1.43 4.934-.6 8 0 1.945-5.981 2.146-9.48-.438-15.313a3182.3 3182.3 0 0 1-1.687-4.16l-.918-2.203c-1.713-4.16-3.307-8.364-4.894-12.574l-.965-2.454-.875-2.312-.79-2.04c-.512-2.298-.162-3.73.567-5.944Z" fill="#0A53A4"/><path d="M759.688 591.25c3.343 2.53 5.799 4.527 6.78 8.781.756 6.629.654 13.366.72 20.032l.04 2.851.002 2.684.013 2.422C767 630 767 630 765 632c-2.729-.033-5.297-.564-8-1-1-4.11-1.07-7.903-1-12.125.05-6.359-.265-12.561-1-18.875-4.333-.928-7.667-.928-12 0-2.643 9.913-2.193 19.824-2 30-4.735 2.208-7.062 1.743-12 0l2-1-1-38 9-1 2 4 1.125-1.375c5.31-4.602 11.446-4.22 17.563-1.375Z" fill="#0B52A3"/><path d="M155 354c4.192 2.353 6.996 5.369 9.5 9.438 1.255 6.433.938 11.075-2.223 16.8-2.648 3.653-6.095 5.368-10.277 6.762-7.105.697-11.912-1.562-17.375-5.875-3.044-3.98-3.848-7.632-3.563-12.563.88-6.058 3.683-9.857 8.5-13.5 5.23-1.616 10.031-2.06 15.438-1.062Z" fill="#0352A6"/><path d="M322 354c4.881 2.307 7.556 5.203 10 10 1.22 4.58 1.244 8.1 0 12.688-2.94 4.87-6.546 8.494-12 10.312-7.136.468-11.192-.575-16.75-5.375-3.131-3.653-4.086-6.178-4.625-10.938.55-5.41 2.092-9.463 6.035-13.304 5.39-3.918 10.846-4.447 17.34-3.383Z" fill="#0351A6"/><path d="M888.938 592.875 891 595l2.375 1.938C895 599 895 599 894.75 601.75L894 604l-9 1-2-5c-6.736-1.276-6.736-1.276-13 1-2.058 3.191-2.244 5.748-2.188 9.5l.02 2.844c.151 2.391.367 4.401 1.168 6.656 3.623 2.306 6.953 2.248 11.063 1.625 3.148-1.016 4.887-3.127 6.937-5.625 3.438.813 3.438.813 7 2l1 3c-1.293 1.973-1.293 1.973-3.188 4.063l-1.855 2.097c-4.614 4.338-9.805 4.876-15.957 4.84-6.747-.92-10.444-3.876-14.688-9.063-3.71-5.477-2.789-12.62-2.312-18.937 1.484-6.39 5.306-9.44 10.684-12.871 6.84-3.334 14.916-2.3 21.254 1.746Z" fill="#0C53A3"/><path d="M370 575h9v1h-8l.016 1.896c.02 2.826.034 5.653.046 8.479l.026 2.984.01 2.852.016 2.634C371 597 371 597 370 599c.324 1.668.66 3.335 1 5 .066 2.103.086 4.208.063 6.313l-.028 3.238L371 616h-1l-.148-2.266-.227-2.984c-.07-.975-.14-1.95-.21-2.953-.414-2.788-.78-4.509-2.415-6.797-2.163-1.123-2.163-1.123-4.625-1.75l-2.477-.734L358 598l-1 2-3 1c-2.12 3.11-2.27 5.796-2.25 9.5l-.016 2.844c.274 2.738.776 4.36 2.266 6.656 3.695 2.053 6.825 2.194 11 2-2 2-2 2-5.125 2.125L357 624l4 2-1 3 4 2c-7.115 1.63-11.638.017-17.813-3.688-4.405-4.657-5.856-11.014-6.187-17.312.674-8.088 4.282-13.6 10.188-19 4.495-1.598 9.105-1.69 13.812-1l5 3 1-18Z" fill="#1058A8"/><path d="M274 590h9l1 3 2.625-1.5c3.482-1.548 5.623-1.768 9.375-1.5 1.125 6.625 1.125 6.625 0 10-1.996.625-1.996.625-4.438 1-2.405.316-2.405.316-4.562 1-2.197 3.295-2.225 4.161-2.125 7.965.015.965.03 1.93.047 2.924l.156 6.086.047 2.927.07 2.672c-.213 2.647-.745 4.212-2.195 6.426-4.317 1.634-5.42.832-10-1l1-40Z" fill="#135BAB"/><path d="M806 598h1c.193 4.199.371 8.398.537 12.598.058 1.428.12 2.855.187 4.283.094 2.055.175 4.11.253 6.166l.158 3.745c-.13 3.073-.501 4.654-2.135 7.208l-8-1-1-3h-2v2c-5.981 1.8-11.201 2.868-17 0-3.334-3.05-4.76-5.158-6-9.5 0-4.188.573-6.087 3-9.5 6.282-5.14 14.197-5.237 22-6l1-5c2 2 2 2 2.125 4.625L800 607c-2.893 1.447-5.805 1.38-9.004 1.621L789 609l-1 2h11v7h1v12h6v-32Zm-14 16-2.875-.063c-3.292-.214-3.292-.214-6.125 2.063-.417 2.5-.417 2.5 0 5 1.99 2.413 1.99 2.413 5.875 2.375 3.01-.087 3.978-.277 6.563-2 1.85-2.812 2.26-5.048 2.562-8.375-3.29-.367-3.29-.367-6 1Z" fill="#1158A8"/><path d="m184.684 395.978 3.539.143 3.818.147 4.022.17 4.033.158c3.301.13 6.603.265 9.904.404l1 11-2 1v-11h-27v104h27l-1-2a112.16 112.16 0 0 1-.177-5.652l-.039-3.593-.022-3.907-.013-1.993c-.02-3.488-.035-6.976-.044-10.464-.011-3.577-.045-7.154-.085-10.73a1010.3 1010.3 0 0 1-.038-8.312 579.201 579.201 0 0 0-.06-5.854c.02-9.01 1.24-17.499 6.728-24.932 5.658-5.272 12.062-7.672 19.75-7.813l2.563-.078c2.91.392 4.26 1.412 6.437 3.328l-3.437.078c-11.556-.03-11.556-.03-21.563 4.922-8.085 8.692-7.293 21.953-7.16 33.063l.016 3.619c.017 3.773.048 7.545.082 11.318.027 3.801.052 7.603.07 11.404.013 2.355.03 4.71.054 7.065l.02 3.219.025 2.824c-.1 2.316-.45 4.272-1.107 6.488-3.97.025-7.939.043-11.908.055-1.351.005-2.702.012-4.054.02-1.938.013-3.877.018-5.815.023l-3.54.016C182 504 182 504 181 503a58.944 58.944 0 0 1-.127-4.138l-.009-2.702.007-2.988-.006-3.129c-.004-3.43-.001-6.862.002-10.293a12119.5 12119.5 0 0 1 .002-22.059c.006-6.4.003-12.799-.003-19.199-.004-4.901-.002-9.803 0-14.705 0-2.36 0-4.72-.002-7.081-.003-3.293.001-6.585.007-9.878l-.007-2.988.009-2.702.001-2.362c.21-2.963.827-2.774 3.81-2.798Z" fill="#2E71B7"/><path d="m712 590 10 1v39l-9 1c-1-1-1-1-1.114-4.785 0-1.688.006-3.375.016-5.063l.005-2.686c.005-2.843.018-5.686.03-8.529.006-1.922.01-3.845.014-5.767.011-4.723.028-9.447.049-14.17Z" fill="#155FAE"/><path d="M301 398h29v116h-1V399h-25v112l-2-1c-2.221-11.55-1.127-24.222-1.098-35.926l.005-6.603c.003-5.752.013-11.504.024-17.256.01-5.886.015-11.772.02-17.658.01-11.52.028-23.038.049-34.557Z" fill="#053D8C"/><path d="M279 426h1v6h2v71c-9.384 2.346-19.328 1-29 1v-70h1v67h25v-75Z" fill="#13509C"/><path d="M824 590c1.125 1.688 1.125 1.688 2 4a89.286 89.286 0 0 1-2 5l1 3h-2v26l-7 1v-37l8-2Z" fill="#024DA1"/><path d="M302 395h2v2h28l1 3h-2l.038 3.079c.12 9.676.237 19.353.353 29.029.06 4.972.12 9.944.182 14.916.469 38.024.469 38.024.52 51.226l.02 2.47c.006 6.553-.756 12.86-2.113 19.28-2-3-2-3-1.635-4.885L329 513c.098-1.614.146-3.23.158-4.847l.03-2.949.017-3.215.03-3.4c.032-3.712.057-7.424.081-11.136l.063-7.718c.05-6.08.095-12.161.138-18.242.05-6.924.105-13.848.16-20.771.114-14.24.22-28.481.323-42.722h-28v-3Z" fill="#2566AC"/><path d="M439 426c2.155 4.31 2.244 6.327 2.227 11.063v2.13c0 2.316-.016 4.632-.032 6.948l-.008 4.825c-.008 4.229-.028 8.457-.05 12.685-.02 4.317-.03 8.634-.04 12.95-.02 8.467-.056 16.933-.097 25.399h-25v-12h1v11l22-1v-74Z" fill="#02408E"/><path d="m819 590 1 2h-4v37l7-1v-26h2v-3c3.212-1.906 5.539-2.223 9.25-2.125l2.703.055L839 597l1 3 2 1-2 2-1.563-2.063c-2.383-2.306-2.383-2.306-6-1.937-3.858 1.122-4.517 1.603-6.437 5-.503 2.994-.503 2.994-.512 6.297l-.107 3.652-.068 3.801-.104 3.848c-.082 3.134-.152 6.267-.209 9.402h-10v-40l4-1Z" fill="#2967AD"/><path d="M671 576c4.966-.025 9.932-.043 14.899-.055 1.69-.005 3.381-.012 5.072-.02 2.425-.013 4.85-.018 7.275-.023l2.304-.015c1.817 0 3.634.051 5.45.113 1 1 1 1 1.133 2.813l-.008 2.187.008 2.188C707 585 707 585 706 586c-1.666.04-3.334.043-5 0l4-1v-8h-33l.5 10.5c1.156 25.91 1.156 25.91-.5 37.5l-2-1c-.025-6.514-.043-13.029-.055-19.543-.005-2.218-.012-4.435-.02-6.653a3961.07 3961.07 0 0 1-.023-9.546l-.015-3.018v-2.79l-.007-2.463C670 578 670 578 671 576Z" fill="#2F69AC"/><path d="m699.5 354.87 3.491-.009 3.794.006 3.895-.003c2.728-.001 5.456.001 8.184.006 3.474.005 6.948.002 10.423-.004 3.332-.004 6.665-.001 9.998.001l3.751-.006c6.407.017 12.613.282 18.964 1.139v1c-15.427.968-30.796 1.122-46.25 1.062-2.318-.005-4.635-.01-6.953-.013-5.6-.011-11.198-.028-16.797-.049v-2c2.623-1.311 4.563-1.127 7.5-1.13Z" fill="#0B4795"/><path d="M719.813 574.813 722 576c.813 3.25.813 3.25 1 7-2.438 2.438-2.438 2.438-5 4-2.915-1.074-4.778-1.778-7-4 .063-2.938.063-2.938 1-6 2.908-2.585 4.017-3.284 7.813-2.188Z" fill="#0E54A3"/><path d="M406 577h8v19h-1v-18h-5l-1 50h5l1-4c1 1 1 1 1.063 3.563L414 630h-8v-53Z" fill="#043D8C"/><path d="M241.3 418.52 243 420l-3.438.078c-11.557-.032-11.557-.032-21.562 4.922-5.002 5.495-6.114 11.806-7 19h-1c-.697-7.633-.488-12.968 4.293-19.16 5.997-6.463 18.823-11.726 27.008-6.32Z" fill="#1657A3"/><path d="M720 592h1v38l-8 1v-34h1l1 30 5 1v-36Z" fill="#053D8B"/><path d="M418 398c-3.195 1.029-5.197.902-8.438.125-9.05-1.83-18.36-1.81-27.562-2.125v2l-11 1c11.128-7.419 35.828-8.448 47-1Z" fill="#1F5EA8"/><path d="M275 592h1v36h5l1-24h1v26h-8v-38Z" fill="#053E8C"/><path d="M849 597c2.484 3.725 2.232 5.63 2.195 10.074l-.008 2.072c-.011 2.181-.037 4.361-.062 6.542-.01 1.48-.02 2.96-.027 4.439-.022 3.624-.057 7.249-.098 10.873h-3l-2 .625c-2 .375-2 .375-5-1.625-.34-2.614-.34-2.614-.293-5.883l.03-3.535c.024-1.223.05-2.447.076-3.707l.04-3.73c.036-3.05.085-6.097.147-9.145h1v25h7v-32Z" fill="#3C7CBF"/><path d="M876 455v13h-1v-12l-4.25 1c-8.819 1.646-17.819 1.157-26.75 1 6.063-6.063 23.745-3.072 32-3Z" fill="#10509E"/><path d="M209 436h1c.986 12.217 1.174 23.8 0 36h-2c-.025-4.645-.043-9.29-.055-13.934-.005-1.58-.012-3.16-.02-4.74a2005.31 2005.31 0 0 1-.023-6.814l-.015-2.14c0-3.075.133-5.431 1.113-8.372Z" fill="#084794"/><path d="M863 500c-5.117 5.117-12.638 5.167-19.494 5.207-3.838-.028-7.67-.1-11.506-.207v-2l-2-1 3.875.07c1.708.02 3.417.037 5.125.055.84.017 1.678.034 2.543.05 7.374.058 14.176-2.539 21.457-2.175Z" fill="#1C58A2"/><path d="M368 622v2h2c0 2 0 2-1.61 4.11-3.077 2.433-4.77 2.308-8.64 2.14l-3.266-.11L354 630v-1h6v-3l-4-2c3.694-1.847 7.916-2 12-2Z" fill="#05499C"/><path d="m307 612 19 1v1h-17c2.268 5.693 2.268 5.693 4.89 7.367 2.397.72 4.362.831 6.86.758l2.422-.055L325 622l-1 2c-10.47.902-10.47.902-13.91-1.125-3.356-3.757-3.09-5.672-3.09-10.875Z" fill="#2B6FB8"/><path d="M266 599c2.097 3.146 2.52 5.015 3.125 8.688l.508 3.011L270 613c-2.791 1.396-5.202 1.218-8.32 1.316l-3.809.127-3.996.12-4.02.13c-3.285.107-6.57.209-9.855.307v-2l26-1v-13Z" fill="#3676BC"/><path d="M533 395v1c-5.375 1.403-10.73.995-16.23.785-5.387-.1-8.96.765-13.77 3.215l-2-2c10.328-4.167 21.01-5.376 32-3Z" fill="#1B5DA9"/><path d="M800 392h1c2.045 12.017.886 23.698-4 35l-2-3h2l1-11h2v-21Z" fill="#2162AB"/><path d="M561 402c2.133.395 2.133.395 4 1l-1.426 1.207-1.886 1.606-1.864 1.582c-1.84 1.548-1.84 1.548-3.304 3.304C555 412 555 412 551 412c-1.703-1.969-1.703-1.969-3.25-4.5l-1.578-2.531L545 403c4.233.78 5.438 2.584 8 6l2 1 .75-1.75c1.463-2.633 2.888-4.375 5.25-6.25Z" fill="#1255A3"/><path d="M585 419v1l-2.527.008c-7.877.27-13.777 1.232-19.473 6.992-1.47 2.362-2.192 4.306-3 7h-1c-.48-4.034-.21-5.682 2.063-9.125 7.486-7.839 13.55-7.2 23.937-5.875Z" fill="#1A5CA8"/><path d="m301 398 3 2c.34 2.43.34 2.43.293 5.445l-.03 3.262-.075 3.418-.042 3.441A905.244 905.244 0 0 1 304 424h-1v-6h-2v-20Z" fill="#114F9B"/><path d="M799 611v5l-1-3h-5l-1 2-2.875-.063c-3.032-.163-3.032-.163-5.125 1.063-.656 2.527-.656 2.527-1 5l-2-2v-4h2v-2c5.57-1.592 10.211-2.207 16-2Z" fill="#1A5BA8"/><path d="M403 501c-10.579 4.816-20.603 4.405-32 4v-1h18v-2a347.885 347.885 0 0 1 5.313-1.625l2.988-.914C400 499 400 499 403 501Z" fill="#2967B0"/><path d="M680 616h1c.194 2.312.38 4.625.563 6.938l.316 3.902L682 630c-1 1-1 1-3.285 1.098l-2.778-.035-2.785-.028L671 631v-3h8l-.035-2.117-.028-2.758-.035-2.742C679 618 679 618 680 616Z" fill="#205EA5"/><path d="m234 416.75 2.563-.078C239 417 239 417 243 420h-21c4.051-2.7 7.18-3.162 12-3.25Z" fill="#114F9D"/><path d="m856.563 393.813 3.816-.043c3.56.226 6.312.94 9.621 2.23v1l-28-1v-1c4.895-.79 9.59-1.162 14.563-1.188Z" fill="#2161AA"/><path d="m161 362 3 1c1.745 5.235 1.667 9.972-.5 15l-1.5 3-3-1c.375-2.438.375-2.438 1-5l2-1-1-12Z" fill="#1D59A0"/><path d="M739 603h1c.848 8.822 1.049 17.191 0 26h-2c-.027-3.02-.047-6.042-.063-9.063l-.025-2.568c-.019-4.905.255-9.533 1.088-14.369Z" fill="#084595"/><path d="M388 415c6.34-.234 11.982-.15 18 2 1.219 2.078 1.219 2.078 2 4l-2.309-.656c-6.447-1.739-12.019-2.678-18.691-2.344l1-3Z" fill="#1454A0"/><path d="M876 488h1v14h24v1h-25v-11h-2l2-4Z" fill="#1E5FA8"/><path d="m233.293 394.672 3.894.078 2.032.033c4.658.104 9.186.467 13.781 1.217v1l-26 1c3-3 3-3 6.293-3.328Z" fill="#074799"/><path d="M834 466c.934 3.01 1.044 3.867 0 7l2 1 .375 1.875c.836 2.842 2.178 3.541 4.625 5.125l3 2c-2.688.313-2.688.313-6 0-3.102-2.55-4.726-4.177-6-8-.188-3.563-.188-3.563 0-7l2-2Z" fill="#1255A2"/><path d="M757 602c2.678 2.678 2.305 4.14 2.414 7.883l.117 3.535.094 3.707.117 3.73c.095 3.048.18 6.097.258 9.145l-3-1c-1.066-3.197-.736-5.004-.258-8.262.585-6.214.326-12.502.258-18.738Z" fill="#0B4694"/><path d="M82 357c7.55.29 13.563 3.117 20 7l1 2c-4.75-.875-4.75-.875-7-2v-2l-3.875-.438c-2.382-.268-3.97-.484-6.125-1.562v-2l-4-1Z" fill="#205FA9"/><path d="M967 470c4.053 1.503 5.487 3.872 7.688 7.5l1.824 2.969A76.2 76.2 0 0 1 979 485l-2 2a2138.544 2138.544 0 0 1-5-7.375l-1.445-2.117-1.367-2.031-1.27-1.873C967 472 967 472 967 470Z" fill="#15519C"/><path d="M610 625v5c-3.674 1.176-7.17 1.074-11 1l-1-2 1-2 8 1v-2c2-1 2-1 3-1Z" fill="#17539D"/><path d="M195 621h2c-.458 3.47-.891 6.674-2 10h-9v-3h6l3-7Z" fill="#205DA6"/><path d="m589 615 2.313.938c1.875.74 3.774 1.424 5.687 2.062l-1 5-4 1v-7l-6 2 3-4Z" fill="#1A58A1"/><path d="M625 584c2.15 3.224 3.025 5.984 4.125 9.688l1.07 3.574L631 600l-2 2a1913.12 1913.12 0 0 1-2.438-5.75l-1.37-3.234c-.932-2.357-1.67-4.546-2.192-7.016h2v-2Z" fill="#1959A5"/><path d="m639 626 1 2h7l1-2 3 3-2 3-9-1-1-5Z" fill="#1D589F"/><path d="M886 616c1.316.255 2.628.53 3.938.813l2.214.457L894 618l1 3-5 5-1-6-4 1 1-5Z" fill="#1B539C"/><path d="M618 407c4.47 4.933 7.174 10.278 7.188 17l-.188 3h-1v-5h-2c-1.757-4.974-3.326-9.742-4-15Z" fill="#1D5DA7"/><path d="M236 394c9.01-.308 17.704.128 26 4l-3 2c-3.188-.875-3.188-.875-6-2v-2l-17-1v-1Z" fill="#2869B1"/><path d="m470 599 2 1c-2.89 11.706-2.89 11.706-6 16-1.327-3.982 0-6.448 1.438-10.188l.736-1.982c.6-1.613 1.212-3.222 1.826-4.83Z" fill="#1D5CA6"/><path d="m356 448 2 1c-2.01 5.118-6.103 7.824-11 10 1.559-3.827 4.032-6.18 7-9l2-2Z" fill="#1256A4"/><path d="M134 361h2l-2 15h-2c-1.202-6.228-.932-9.371 2-15Z" fill="#1C59A2"/><path d="M442 600c3.155 4.733 3.564 10.678 2.613 16.277-.46 1.599-1.025 3.167-1.613 4.723-2.189-3.476-1.8-5.085-1-9 .066-2.103.086-4.208.063-6.313l-.028-3.238L442 600Z" fill="#2462AB"/><path d="m541 595 1 3-4 4 5 5-1 2c-5.64-3.36-5.64-3.36-7.125-6 .125-2 .125-2 1.938-4.25C539 597 539 597 541 597v-2Z" fill="#1E5EA9"/><path d="M345 464h1l1 21-3-2c-.328-2.828-.328-2.828-.25-6.25.015-1.119.03-2.238.047-3.39.193-3.186.614-6.226 1.203-9.36Z" fill="#084796"/><path d="M769 393c3.194 3.194 3.158 6.117 3.188 10.438l.042 2.87C772 409 772 409 770 413l-1-20Z" fill="#0E4F9D"/><path d="m939.625 354.938 3.602.027L946 355l1 5-1-2h-15v-2c2.884-1.442 5.417-1.094 8.625-1.063Z" fill="#0B4896"/><path d="M446 590h1l.375 2.313c.506 2.89.506 2.89 2.625 5.687 1.25 3.5 1.25 3.5 2 7l-2 3a668.639 668.639 0 0 1-2.563-6.75l-.748-1.922c-1.271-3.438-2.156-5.85-.689-9.328Z" fill="#205FA9"/><path d="M218 624h1v6c-1.478.194-2.958.38-4.438.563l-2.496.316L210 631c-1-1-1-1-1.063-3.563L209 625l2 1v2h6l1-4Z" fill="#104D99"/><path d="M774 613h2v13h-2c-2.005-2.83-2.082-4.857-1.688-8.188C773 614 773 614 774 613Z" fill="#1C58A3"/><path d="m335 605 2 1v5l2 1c-1.207 1.52-1.207 1.52-3 3-2.262.074-2.262.074-4.688-.313l-2.449-.363L327 614c2.664-2.977 2.664-2.977 5.688-3.188L335 611v-6Z" fill="#2367B1"/><path d="m291.25 520.438 2.703.308L296 521c-2.59 2.59-4.027 2.374-7.625 2.625l-3.04.227L283 524l-1-3c3.27-1.031 5.86-.964 9.25-.563Z" fill="#1B5AA6"/><path d="m783 440 3 1c-4.847 4.004-8.807 6.71-15 8v-2l2.371-1.277 3.067-1.66 3.058-1.653c2.37-1.187 2.37-1.187 3.504-2.41Z" fill="#1855A0"/><path d="m387 418-3 2c-3.872 3.4-5.719 5.993-7 11-2-3-2-3-1.438-5.938 2.466-5.252 5.548-7.735 11.438-7.062Z" fill="#1A5BA7"/><path d="m862 415 2 1v2l2 1c-2.538 0-4.864-.191-7.375-.5-3.231-.374-6.367-.605-9.625-.5 4.497-2.326 7.9-3.217 13-3Z" fill="#1C5DA7"/><path d="m66 355 16 1v2H66v-3Z" fill="#11509C"/><path d="m371 626 1 2 7-2v5c-3.053.981-4.947.981-8 0v-5Z" fill="#1B59A2"/><path d="m170 602 3 1c.25 1.601.474 3.206.688 4.813.19 1.34.19 1.34.386 2.707C174 613 174 613 171 616l-1-14Z" fill="#1A59A6"/><path d="M200 589c1.675.286 3.344.618 5 1l-1 4-2.375.188L199 595c-1.375 2.476-1.375 2.476-2 5-1.397-4.19.136-6.128 2-10l1-1Z" fill="#2863AA"/><path d="m721 577 2 1c.313 2.25.313 2.25 0 5-2.25 2.375-2.25 2.375-5 4-2.313-.25-2.313-.25-4-1v-2l5-1 2-6Z" fill="#1B579F"/><path d="m867 616 .688 1.875c1.767 2.862 3.082 3.264 6.312 4.125 2.332.076 4.668.091 7 0l-1 2c-3.952.988-6.148 1.408-9.875-.375C868 622 868 622 867 621a99.984 99.984 0 0 1 0-5Z" fill="#2162AC"/><path d="M349 423h1v6h8v2l2 1-11-1c-.925-3.702-1.082-4.635 0-8Z" fill="#1D61AE"/><path d="M897 414c4.033 4.583 5.366 9.969 5 16-2.418-2.921-3.687-5.492-4.75-9.125l-.797-2.633C896 416 896 416 897 414Z" fill="#195CA7"/><path d="m541 608 3 1c.762 4.316 1.16 7.744 0 12l-3 1v-14Z" fill="#1758A5"/><path d="M958 458c2.44.392 3.732.737 5.52 2.488l1.293 1.825 1.332 1.8c1.074 2.369.718 3.488-.145 5.887a2421.09 2421.09 0 0 1-4-5.438l-2.25-3.058C958 459 958 459 958 458Z" fill="#1556A1"/><path d="M246 423c1.813.125 1.813.125 4 1 3.245 4.752 3.286 8.462 3 14-1.761-3.252-2.99-6.62-4.219-10.098-.82-2.173-.82-2.173-2.781-4.902Z" fill="#1859A4"/><path d="M328 517h1c-.273 6.14-.973 10.24-5 15h-2c1.875-4.75 1.875-4.75 3-7h2l-.063-2.875C327 519 327 519 328 517Z" fill="#16529D"/><path d="m220 399 2 1c-4.185 5.785-4.185 5.785-8.313 6.875L211 407c2.853-2.932 5.65-5.643 9-8Z" fill="#1458A6"/><path d="M326 382c-1 3-1 3-3.063 4.188-3.876 1.072-6.91 1.072-10.937.812l-3-2 3.563.188c4.996.026 8.785-3.188 13.437-3.188Z" fill="#2667AF"/><path d="M158 382c-1 3-1 3-3.125 4.188-3.448.974-6.306 1.076-9.875.812l-3-2h7v-1c6.75-2 6.75-2 9-2Z" fill="#2261AA"/><path d="m316.75 353.875 2.984.055L322 354v1l-8 1v1l-10 2c4.29-4.29 6.706-5.269 12.75-5.125Z" fill="#215FA8"/><path d="m779 628 13 1v2c-4.333.928-7.667.928-12 0l-1-3Z" fill="#1756A3"/><path d="M213 427c1.377 3.718.462 5.427-1 9-.456 2.664-.726 5.308-1 8h-1a317.1 317.1 0 0 1-.188-5.688l-.105-3.199c.326-3.467 1.303-5.297 3.293-8.113Z" fill="#1C5DA8"/><path d="M375 428h1v6c-2.818 1.41-4.173.509-7.125-.438l-2.758-.87L364 432v-1h10l1-3Z" fill="#104E9C"/><path d="M528 396c5.842-.35 9.853-.167 15 3v1c-5.239-.551-9.974-1.43-15-3v-1Z" fill="#13519E"/><path d="M793 376c2.52 2.259 3.873 4.418 5.25 7.5l1.078 2.344C800 388 800 388 799 391l-1-5h-2c-2.034-3.73-3-5.67-3-10Z" fill="#1A5CA7"/><path d="M299 367h1v6h2c1.667 3.53 2.136 5.283 1 9-3.042-5.228-4.506-8.927-4-15Z" fill="#2865AC"/><path d="m690 355 2 1v15h-1l-.148-1.863-.227-2.45c-.07-.8-.14-1.6-.21-2.425-.31-2.534-.31-2.534-2.415-5.262l2-4Z" fill="#1858A3"/><path d="M766 626c.625 1.875.625 1.875 1 4l-2 2c-2.729-.033-5.297-.564-8-1v-3l3 1c2 .04 4 .044 6 0v-3Z" fill="#3773B6"/><path d="M183 595h2c.532 1.6 1.05 3.206 1.563 4.813l.878 2.707C188 605 188 605 187 608c-4.592-8.262-4.592-8.262-4-13Z" fill="#1D5BA5"/><path d="M413 457h1v15l-3 1 2-16Z" fill="#1F63AC"/><path d="m310 619 2.438 1.5c4.382 1.845 7.885 1.78 12.562 1.5l-1 2c-1.958.054-3.916.093-5.875.125l-3.305.07C312 624 312 624 310 622v-3Z" fill="#2564AC"/><path d="m179 608 1 2h2c1.758 5.957 1.758 5.957 2 8l-2 3a894.533 894.533 0 0 1-1.5-4.813l-.844-2.707C179 611 179 611 179 608Z" fill="#2361A9"/><path d="m774 600 1 2 9-2 1 3c-4.018.841-7.018 1.054-11 0v-3Z" fill="#2363AB"/><path d="M283 590v5h-3v-2l-5-1v-1c2.763-.597 5.16-1 8-1Z" fill="#13509B"/><path d="M345 484c3.324 1.108 3.616 1.484 5.25 4.375l1.078 1.836C352 492 352 492 351 495a782.74 782.74 0 0 1-3-4.375l-1.688-2.46C345 486 345 486 345 484Z" fill="#1B5AA4"/><path d="M309.5 540.875 311 542c-4.177 1.591-7.532 2.213-12 2v-2c7.385-2.215 7.385-2.215 10.5-1.125Z" fill="#1A59A5"/><path d="m953 462 1 3c-1.375 2-1.375 2-3 4l-1 3h-2c-.313-2.188-.313-2.188 0-5 2.5-2.813 2.5-2.813 5-5Z" fill="#1659A6"/><path d="m378 459 3 2-1.813.5c-3.372 2.313-4.02 5.699-5.187 9.5h-1c-.313-3.188-.313-3.188 0-7 2.5-2.938 2.5-2.938 5-5Z" fill="#1B5FAC"/><path d="M99 606h1l.402 2.52.535 3.293.528 3.269c.474 2.967.474 2.967 1.535 5.918h-3c-1.442-2.884-1.094-5.417-1.063-8.625l.028-3.602L99 606Z" fill="#2768B1"/><path d="m416 593 3 1-1 2.313c-1.174 2.678-1.174 2.678-1 5.687h-2c-.81-2.915-1.218-4.461-.063-7.313L416 593Z" fill="#07499B"/><path d="M734 590h5l2 4 1-2 2 1-2 3h-3l-1-4h-4v-2Z" fill="#2867AE"/><path d="M474 590h8c1.208 3.623.543 4.641-1 8h-1v-6h-7l1-2Z" fill="#265DA2"/><path d="M408.375 477.25 410 478c-2.688 2.252-4.646 3.882-8 5l-2-2c5.415-4.062 5.415-4.062 8.375-3.75Z" fill="#1456A3"/><path d="m792 430 2 2-6 8-2-1 1-3h2l.938-1.875L792 430Z" fill="#195BA6"/><path d="m989 427 3 1-6 7-2-1v-3c2.313-2.25 2.313-2.25 5-4Z" fill="#1252A0"/><path d="M223 611c1.16 3.479.775 4.342-.438 7.688l-.87 2.449L221 623h-1c-.295-5.023.015-7.895 3-12Z" fill="#1E5FAC"/><path d="m455 591-1 4v-2h-6l-1 3v-5c5.75-1.125 5.75-1.125 8 0Z" fill="#0F4B97"/><path d="M538 582c1.938.313 1.938.313 4 1 .96 2.882 1.106 4.699 1.063 7.688l-.028 2.449L543 595h-1v-8h-2l-2-5Z" fill="#2567B0"/><path d="m584 584 1 3-12-2c4.18-2.786 6.147-1.796 11-1Z" fill="#1E59A3"/><path d="M493 425c1.392 4.176-.177 6.135-2 10h-2c.48-4.22 1.166-6.797 4-10Z" fill="#14539E"/><path d="m926 618 8 1-1 5c-2.44-1.926-4.8-3.8-7-6Z" fill="#2B68AE"/><path d="M798 600c2 2 2 2 2 7h-10v-1l7-1 1-5Z" fill="#2264B1"/><path d="M320 534c-1.444 3.807-3.35 5.266-7 7l-2-1c5.714-6 5.714-6 9-6Z" fill="#1A57A1"/><path d="m806 485 3 1c.95 2.066.95 2.066 1.688 4.563.25.826.502 1.652.761 2.503L812 495h-3l-3-10Z" fill="#2668B0"/><path d="M856 415c-3.6 2.4-6.961 4.322-11.375 3.625L843 418c4.276-2.851 7.932-3.145 13-3Z" fill="#0A4694"/><path d="m406 417 2 4-12-3c4.32-2.16 5.519-2.364 10-1Z" fill="#2060A9"/><path d="M405 395c1.605.114 3.209.242 4.813.375.893.07 1.786.14 2.707.21C415 396 415 396 418 398c-3.34 1.113-5.63 1.011-9 0a110.737 110.737 0 0 1-4-3Z" fill="#2466AE"/><path d="M164 374c-.875 4.75-.875 4.75-2 7l-3-1c.375-2.438.375-2.438 1-5 2-1 2-1 4-1Z" fill="#11519C"/><path d="M322 355c3.337 1.173 5.774 2.189 8 5v2c-2.95-1.37-5.525-2.878-8-5v-2Z" fill="#1656A0"/><path d="m921 355 9 1c-2 2-2 2-4.164 2.195l-2.461-.07-2.477-.055L919 358l2-3Z" fill="#0F4A96"/><path d="M898 603c2.152 3.228 2.2 4.284 2 8h-1l-1 5h-1a535.423 535.423 0 0 1-.063-4.25l-.035-2.39c.094-2.267.466-4.189 1.098-6.36Z" fill="#2A6CB5"/><path d="m780 592 2 1c-1.098 2.993-1.677 3.846-4.625 5.25L775 599c1.293-2.884 2.66-4.872 5-7Z" fill="#1E60AB"/><path d="M876 488h1v15h-1v-11h-2l2-4Z" fill="#2A70B8"/><path d="m1005 409 1 3-6 5v-5l1.938-.938c1.998-.897 1.998-.897 3.062-2.062Z" fill="#12509C"/><path d="m412 624 2 1v5h-6v-2h4v-4Z" fill="#054695"/><path d="M891 618h3l1 3-5 5c-.043-2-.04-4 0-6l1-1v-1Z" fill="#2362A9"/><path d="M343 620h2c4 5.412 4 5.412 4 8-1.875-.625-1.875-.625-4-2-1.25-3.125-1.25-3.125-2-6Z" fill="#1C57A3"/><path d="M142 608h1l2 11-3-1c-1.517-3.413-.728-6.442 0-10Z" fill="#1F63AF"/><path d="m247 605 7 2v1h-10l3-3Z" fill="#2665AE"/><path d="M525 585c2.333-.042 4.667-.04 7 0 1 1 1 1 1.098 2.848L533 594h-1l-2-7-5-1v-1Z" fill="#2B6AB1"/><path d="M884 401c3.914 1.27 5.79 2.512 8 6-2.313-.188-2.313-.188-5-1-1.813-2.563-1.813-2.563-3-5Z" fill="#1C5DA8"/><path d="M265 623v3c-2.5 2.188-2.5 2.188-5 4l-2-1c4.75-4.875 4.75-4.875 7-6Z" fill="#225FA9"/><path d="M151 597c7.508-.37 7.508-.37 10 1.5l1 1.5c-2 1-2 1-4.164.441l-2.461-.879-2.477-.87L151 598v-1Z" fill="#1659A6"/><path d="M330 508h1c.286 8.571.286 8.571-2 12l-1-7h1l1-5Z" fill="#2564AD"/><path d="M372 466h1l1 10-1-2h-2c-.125-5.75-.125-5.75 1-8Z" fill="#0F52A0"/><path d="M608 399c3.914 1.27 5.79 2.512 8 6-3.342-.597-5.464-1.736-8-4v-2Z" fill="#1654A1"/><path d="m84 390 4 1c1.25 2.563 1.25 2.563 2 5l-2 2-4-8Z" fill="#1657A3"/><path d="M696 355v2h8v1h-12v-2c2-1 2-1 4-1Z" fill="#0C4B9B"/><path d="M449 638h7v2h-5l-1 3-1-5Z" fill="#07408E"/><path d="M415 620h2v2l2 1h-2l1 4-3-1c-1-3-1-3 0-6Z" fill="#034597"/><path d="M135 619h2c1.783 2.639 2.99 4.972 4 8-3.754-1.251-4.24-2.565-6-6v-2Z" fill="#205FA8"/><path d="M552 615h2c1.688 2.313 1.688 2.313 3 5l-1 3c-4-5.75-4-5.75-4-8Z" fill="#1F5BA3"/><path d="M909 598c2.125.375 2.125.375 4 1l-1.875 1.813c-2.262 2.195-2.262 2.195-4.125 5.187-.125-2.875-.125-2.875 0-6l2-2Z" fill="#1B5DA9"/><path d="m541 595 1 3a141.4 141.4 0 0 1-5 5h-2c0-2 0-2 1.875-4.125C539 597 539 597 541 597v-2Z" fill="#2B6EB5"/><path d="M835 588c3.75.813 3.75.813 7 2v1h-11l4-3Z" fill="#3977B8"/><path d="m815 497 6 1 1 3-4 1v-2c-1.458-1.625-1.458-1.625-3-3Z" fill="#2363AB"/><path d="m835 477 9 6c-2.813.25-2.813.25-6 0-1.875-1.875-1.875-1.875-3-4v-2Z" fill="#256AB4"/><path d="M545 403c4 1 4 1 6 3l-1 4-5-7Z" fill="#0E4D9A"/><path d="m513 396-10 4-2-2a210.497 210.497 0 0 1 3.75-1.563l2.11-.878C509 395 509 395 513 396Z" fill="#2A6CB4"/><path d="M457 443h1v6h-1v-6Z" fill="#226DBB"/><path d="M368 578h1v5h-1v-5Z" fill="#3274B9"/><path d="m529 588 2 2h-2v-2Z" fill="#2C72BA"/></svg>